<svg xmlns="http://www.w3.org/2000/svg" viewBox="0 0 1200 820" width="1200" height="820" font-family="Inter, -apple-system, sans-serif">
  <!-- Background -->
  <rect width="1200" height="820" fill="#F8F9FB"/>

  <!-- Title -->
  <text x="600" y="38" text-anchor="middle" font-size="22" font-weight="700" fill="#111827">Sankofa — Agentic SOC Triage Architecture</text>
  <text x="600" y="58" text-anchor="middle" font-size="12" fill="#6B7280">Splunk Agentic Ops Hackathon · Security Track · by Roger</text>

  <!-- ─────────────────────────────────────────────────────── -->
  <!-- ROW 1: Data Sources -->
  <!-- ─────────────────────────────────────────────────────── -->
  <rect x="40" y="80" width="1120" height="110" rx="10" fill="#EFF6FF" stroke="#BFDBFE" stroke-width="1.5"/>
  <text x="600" y="100" text-anchor="middle" font-size="11" font-weight="600" fill="#1D4ED8" letter-spacing="0.08em">DATA SOURCES</text>

  <!-- Splunk Enterprise -->
  <rect x="80" y="108" width="180" height="68" rx="8" fill="#fff" stroke="#E2E5EC" stroke-width="1.5"/>
  <rect x="80" y="108" width="180" height="6" rx="4" fill="#2563EB"/>
  <text x="170" y="130" text-anchor="middle" font-size="13" font-weight="600" fill="#111827">Splunk Enterprise</text>
  <text x="170" y="147" text-anchor="middle" font-size="10" fill="#6B7280">REST API · port 8089</text>
  <text x="170" y="161" text-anchor="middle" font-size="10" fill="#6B7280">Fired Alerts · Search Jobs</text>

  <!-- Splunk MCP Server -->
  <rect x="290" y="108" width="180" height="68" rx="8" fill="#fff" stroke="#E2E5EC" stroke-width="1.5"/>
  <rect x="290" y="108" width="180" height="6" rx="4" fill="#7C3AED"/>
  <text x="380" y="130" text-anchor="middle" font-size="13" font-weight="600" fill="#111827">Splunk MCP Server</text>
  <text x="380" y="147" text-anchor="middle" font-size="10" fill="#6B7280">v1.2.0 · port 8089/mcp</text>
  <text x="380" y="161" text-anchor="middle" font-size="10" fill="#7C3AED">generate_spl · run_splunk_query</text>

  <!-- Anthropic Claude -->
  <rect x="500" y="108" width="180" height="68" rx="8" fill="#fff" stroke="#E2E5EC" stroke-width="1.5"/>
  <rect x="500" y="108" width="180" height="6" rx="4" fill="#D97706"/>
  <text x="590" y="130" text-anchor="middle" font-size="13" font-weight="600" fill="#111827">Anthropic Claude</text>
  <text x="590" y="147" text-anchor="middle" font-size="10" fill="#6B7280">Haiku (subagents)</text>
  <text x="590" y="161" text-anchor="middle" font-size="10" fill="#6B7280">Sonnet (chat synthesis)</text>

  <!-- VirusTotal -->
  <rect x="710" y="108" width="160" height="68" rx="8" fill="#fff" stroke="#E2E5EC" stroke-width="1.5"/>
  <rect x="710" y="108" width="160" height="6" rx="4" fill="#16A34A"/>
  <text x="790" y="130" text-anchor="middle" font-size="13" font-weight="600" fill="#111827">VirusTotal</text>
  <text x="790" y="147" text-anchor="middle" font-size="10" fill="#6B7280">IP reputation</text>
  <text x="790" y="161" text-anchor="middle" font-size="10" fill="#6B7280">Malware families</text>

  <!-- AbuseIPDB -->
  <rect x="890" y="108" width="160" height="68" rx="8" fill="#fff" stroke="#E2E5EC" stroke-width="1.5"/>
  <rect x="890" y="108" width="160" height="6" rx="4" fill="#DC2626"/>
  <text x="970" y="130" text-anchor="middle" font-size="13" font-weight="600" fill="#111827">AbuseIPDB</text>
  <text x="970" y="147" text-anchor="middle" font-size="10" fill="#6B7280">Abuse reports</text>
  <text x="970" y="161" text-anchor="middle" font-size="10" fill="#6B7280">Tor exit node detection</text>

  <!-- SQLite -->
  <rect x="1070" y="108" width="80" height="68" rx="8" fill="#fff" stroke="#E2E5EC" stroke-width="1.5"/>
  <rect x="1070" y="108" width="80" height="6" rx="4" fill="#6B7280"/>
  <text x="1110" y="133" text-anchor="middle" font-size="12" font-weight="600" fill="#111827">SQLite</text>
  <text x="1110" y="149" text-anchor="middle" font-size="10" fill="#6B7280">WAL mode</text>
  <text x="1110" y="163" text-anchor="middle" font-size="10" fill="#6B7280">Cache + State</text>

  <!-- ─────────────────────────────────────────────────────── -->
  <!-- ARROW: Sources → Backend -->
  <line x1="600" y1="190" x2="600" y2="218" stroke="#D1D5DB" stroke-width="1.5" stroke-dasharray="4 3"/>
  <polygon points="595,218 605,218 600,226" fill="#D1D5DB"/>

  <!-- ─────────────────────────────────────────────────────── -->
  <!-- ROW 2: FastAPI Backend -->
  <!-- ─────────────────────────────────────────────────────── -->
  <rect x="40" y="228" width="1120" height="240" rx="10" fill="#F0FDF4" stroke="#BBF7D0" stroke-width="1.5"/>
  <text x="600" y="248" text-anchor="middle" font-size="11" font-weight="600" fill="#15803D" letter-spacing="0.08em">FASTAPI BACKEND — Python 3.13 · port 8001</text>

  <!-- Alert Poller -->
  <rect x="60" y="258" width="170" height="90" rx="8" fill="#fff" stroke="#E2E5EC" stroke-width="1.5"/>
  <rect x="60" y="258" width="170" height="5" rx="3" fill="#2563EB"/>
  <text x="145" y="278" text-anchor="middle" font-size="12" font-weight="600" fill="#111827">Alert Poller</text>
  <text x="145" y="294" text-anchor="middle" font-size="10" fill="#6B7280">APScheduler</text>
  <text x="145" y="308" text-anchor="middle" font-size="10" fill="#6B7280">Every 30 seconds</text>
  <text x="145" y="322" text-anchor="middle" font-size="10" fill="#6B7280">polls fired_alerts</text>
  <text x="145" y="336" text-anchor="middle" font-size="10" fill="#6B7280">→ queues for triage</text>

  <!-- Triage Engine -->
  <rect x="250" y="258" width="420" height="198" rx="8" fill="#EFF6FF" stroke="#BFDBFE" stroke-width="1.5"/>
  <text x="460" y="278" text-anchor="middle" font-size="12" font-weight="600" fill="#1D4ED8">Triage Engine (splunklib.ai)</text>

  <!-- Severity router -->
  <rect x="262" y="286" width="130" height="50" rx="6" fill="#fff" stroke="#E2E5EC" stroke-width="1"/>
  <text x="327" y="306" text-anchor="middle" font-size="10" font-weight="600" fill="#374151">Severity Router</text>
  <text x="327" y="320" text-anchor="middle" font-size="9" fill="#6B7280">low/med → Fast</text>
  <text x="327" y="332" text-anchor="middle" font-size="9" fill="#6B7280">high/crit → Full</text>

  <!-- Fast triage -->
  <rect x="262" y="346" width="130" height="40" rx="6" fill="#F0FDF4" stroke="#BBF7D0" stroke-width="1"/>
  <text x="327" y="362" text-anchor="middle" font-size="10" font-weight="600" fill="#15803D">FastTriageAgent</text>
  <text x="327" y="376" text-anchor="middle" font-size="9" fill="#6B7280">~10s · Haiku</text>

  <!-- 4 subagents -->
  <rect x="406" y="286" width="252" height="158" rx="6" fill="#fff" stroke="#BFDBFE" stroke-width="1"/>
  <text x="532" y="304" text-anchor="middle" font-size="10" font-weight="600" fill="#1D4ED8">4 Parallel Subagents (high/crit)</text>
  <rect x="414" y="310" width="112" height="34" rx="5" fill="#EFF6FF" stroke="#BFDBFE" stroke-width="1"/>
  <text x="470" y="325" text-anchor="middle" font-size="9" font-weight="600" fill="#1D4ED8">Auth Agent</text>
  <text x="470" y="337" text-anchor="middle" font-size="8" fill="#6B7280">WinEventLog:Security</text>
  <rect x="534" y="310" width="112" height="34" rx="5" fill="#EFF6FF" stroke="#BFDBFE" stroke-width="1"/>
  <text x="590" y="325" text-anchor="middle" font-size="9" font-weight="600" fill="#1D4ED8">Network Agent</text>
  <text x="590" y="337" text-anchor="middle" font-size="8" fill="#6B7280">Firewall · NetFlow</text>
  <rect x="414" y="352" width="112" height="34" rx="5" fill="#EFF6FF" stroke="#BFDBFE" stroke-width="1"/>
  <text x="470" y="367" text-anchor="middle" font-size="9" font-weight="600" fill="#1D4ED8">Endpoint Agent</text>
  <text x="470" y="379" text-anchor="middle" font-size="8" fill="#6B7280">Sysmon · osquery</text>
  <rect x="534" y="352" width="112" height="34" rx="5" fill="#EFF6FF" stroke="#BFDBFE" stroke-width="1"/>
  <text x="590" y="367" text-anchor="middle" font-size="9" font-weight="600" fill="#1D4ED8">Lateral Agent</text>
  <text x="590" y="379" text-anchor="middle" font-size="8" fill="#6B7280">EventCode 4648/4624</text>
  <text x="532" y="408" text-anchor="middle" font-size="9" fill="#6B7280">MCP NL→SPL · Haiku analysis · JSON audit trail</text>
  <text x="532" y="422" text-anchor="middle" font-size="9" fill="#6B7280">Supervisor synthesizes: kill chain · confidence · MITRE</text>

  <!-- Runbook Engine -->
  <rect x="690" y="258" width="185" height="90" rx="8" fill="#fff" stroke="#E2E5EC" stroke-width="1.5"/>
  <rect x="690" y="258" width="185" height="5" rx="3" fill="#7C3AED"/>
  <text x="782" y="278" text-anchor="middle" font-size="12" font-weight="600" fill="#111827">Runbook Engine</text>
  <text x="782" y="294" text-anchor="middle" font-size="10" fill="#6B7280">3 default runbooks</text>
  <text x="782" y="308" text-anchor="middle" font-size="10" fill="#6B7280">Sequential step execution</text>
  <text x="782" y="322" text-anchor="middle" font-size="10" fill="#6B7280">low-risk → auto-execute</text>
  <text x="782" y="336" text-anchor="middle" font-size="10" fill="#6B7280">high-risk → Slack approval</text>

  <!-- Action Executor -->
  <rect x="690" y="358" width="185" height="90" rx="8" fill="#fff" stroke="#E2E5EC" stroke-width="1.5"/>
  <rect x="690" y="358" width="185" height="5" rx="3" fill="#EA580C"/>
  <text x="782" y="378" text-anchor="middle" font-size="12" font-weight="600" fill="#111827">Action Executor</text>
  <text x="782" y="394" text-anchor="middle" font-size="10" fill="#6B7280">add_to_watchlist → KV Store</text>
  <text x="782" y="408" text-anchor="middle" font-size="10" fill="#6B7280">create_splunk_alert</text>
  <text x="782" y="422" text-anchor="middle" font-size="10" fill="#6B7280">block_ip · isolate_host</text>
  <text x="782" y="436" text-anchor="middle" font-size="10" fill="#EA580C">(simulated for demo)</text>

  <!-- Enrichment -->
  <rect x="890" y="258" width="160" height="90" rx="8" fill="#fff" stroke="#E2E5EC" stroke-width="1.5"/>
  <rect x="890" y="258" width="160" height="5" rx="3" fill="#16A34A"/>
  <text x="970" y="278" text-anchor="middle" font-size="12" font-weight="600" fill="#111827">Enrichment</text>
  <text x="970" y="294" text-anchor="middle" font-size="10" fill="#6B7280">VirusTotal + AbuseIPDB</text>
  <text x="970" y="308" text-anchor="middle" font-size="10" fill="#6B7280">24h SQLite cache</text>
  <text x="970" y="322" text-anchor="middle" font-size="10" fill="#6B7280">Auto-expands if malicious</text>
  <text x="970" y="336" text-anchor="middle" font-size="10" fill="#6B7280">Score · Tor · Malware</text>

  <!-- Feedback Loop -->
  <rect x="890" y="358" width="160" height="90" rx="8" fill="#fff" stroke="#E2E5EC" stroke-width="1.5"/>
  <rect x="890" y="358" width="160" height="5" rx="3" fill="#6B7280"/>
  <text x="970" y="378" text-anchor="middle" font-size="12" font-weight="600" fill="#111827">Feedback Loop</text>
  <text x="970" y="394" text-anchor="middle" font-size="10" fill="#6B7280">Analyst decisions →</text>
  <text x="970" y="408" text-anchor="middle" font-size="10" fill="#6B7280">future synthesis context</text>
  <text x="970" y="422" text-anchor="middle" font-size="10" fill="#6B7280">SQLite + Splunk KV Store</text>
  <text x="970" y="436" text-anchor="middle" font-size="10" fill="#6B7280">sankofa_threat_intel</text>

  <!-- Splunk App -->
  <rect x="1065" y="258" width="85" height="90" rx="8" fill="#EFF6FF" stroke="#BFDBFE" stroke-width="1.5"/>
  <text x="1107" y="285" text-anchor="middle" font-size="11" font-weight="600" fill="#1D4ED8">Splunk</text>
  <text x="1107" y="299" text-anchor="middle" font-size="11" font-weight="600" fill="#1D4ED8">App</text>
  <text x="1107" y="315" text-anchor="middle" font-size="9" fill="#6B7280">sankofa.spl</text>
  <text x="1107" y="329" text-anchor="middle" font-size="9" fill="#6B7280">4 Saved</text>
  <text x="1107" y="341" text-anchor="middle" font-size="9" fill="#6B7280">Searches</text>

  <!-- APIs section label -->
  <rect x="1065" y="358" width="85" height="90" rx="8" fill="#F5F3FF" stroke="#DDD6FE" stroke-width="1.5"/>
  <text x="1107" y="382" text-anchor="middle" font-size="11" font-weight="600" fill="#7C3AED">REST</text>
  <text x="1107" y="396" text-anchor="middle" font-size="11" font-weight="600" fill="#7C3AED">APIs</text>
  <text x="1107" y="412" text-anchor="middle" font-size="9" fill="#6B7280">/alerts</text>
  <text x="1107" y="425" text-anchor="middle" font-size="9" fill="#6B7280">/runbooks</text>
  <text x="1107" y="438" text-anchor="middle" font-size="9" fill="#6B7280">/actions</text>

  <!-- ─────────────────────────────────────────────────────── -->
  <!-- ARROWS: Backend → Slack / Frontend -->
  <line x1="350" y1="468" x2="350" y2="496" stroke="#D1D5DB" stroke-width="1.5" stroke-dasharray="4 3"/>
  <polygon points="345,496 355,496 350,504" fill="#D1D5DB"/>
  <line x1="750" y1="468" x2="750" y2="496" stroke="#4ADE80" stroke-width="2" stroke-dasharray="4 3"/>
  <polygon points="745,496 755,496 750,504" fill="#4ADE80"/>

  <!-- ─────────────────────────────────────────────────────── -->
  <!-- ROW 3: Outputs — React Frontend + Slack -->
  <!-- ─────────────────────────────────────────────────────── -->

  <!-- React Frontend Box -->
  <rect x="40" y="506" width="680" height="280" rx="10" fill="#FFFBEB" stroke="#FDE68A" stroke-width="1.5"/>
  <text x="380" y="526" text-anchor="middle" font-size="11" font-weight="600" fill="#92400E" letter-spacing="0.08em">REACT FRONTEND — Vite · port 5173</text>

  <!-- Alert Queue -->
  <rect x="60" y="536" width="150" height="230" rx="8" fill="#fff" stroke="#E2E5EC" stroke-width="1.5"/>
  <rect x="60" y="536" width="150" height="5" rx="3" fill="#2563EB"/>
  <text x="135" y="558" text-anchor="middle" font-size="11" font-weight="600" fill="#111827">Alert Queue</text>
  <text x="135" y="574" text-anchor="middle" font-size="10" fill="#6B7280">WebSocket live</text>
  <text x="135" y="588" text-anchor="middle" font-size="10" fill="#6B7280">Severity badges</text>
  <text x="135" y="602" text-anchor="middle" font-size="10" fill="#6B7280">Risk score sorted</text>
  <text x="135" y="616" text-anchor="middle" font-size="10" fill="#6B7280">Status pulse animation</text>
  <text x="135" y="630" text-anchor="middle" font-size="10" fill="#6B7280">Load Campaign button</text>

  <!-- Graph View -->
  <rect x="225" y="536" width="150" height="108" rx="8" fill="#fff" stroke="#E2E5EC" stroke-width="1.5"/>
  <rect x="225" y="536" width="150" height="5" rx="3" fill="#EA580C"/>
  <text x="300" y="558" text-anchor="middle" font-size="11" font-weight="600" fill="#111827">Graph View</text>
  <text x="300" y="574" text-anchor="middle" font-size="10" fill="#6B7280">D3 force-directed</text>
  <text x="300" y="588" text-anchor="middle" font-size="10" fill="#6B7280">Attacker node dominant</text>
  <text x="300" y="602" text-anchor="middle" font-size="10" fill="#6B7280">Directed arrows</text>
  <text x="300" y="616" text-anchor="middle" font-size="10" fill="#6B7280">Zoom + drag</text>

  <!-- Timeline View -->
  <rect x="225" y="654" width="150" height="112" rx="8" fill="#fff" stroke="#E2E5EC" stroke-width="1.5"/>
  <rect x="225" y="654" width="150" height="5" rx="3" fill="#D97706"/>
  <text x="300" y="676" text-anchor="middle" font-size="11" font-weight="600" fill="#111827">Timeline View</text>
  <text x="300" y="692" text-anchor="middle" font-size="10" fill="#6B7280">Swimlane by severity</text>
  <text x="300" y="706" text-anchor="middle" font-size="10" fill="#6B7280">Attack progression →</text>
  <text x="300" y="720" text-anchor="middle" font-size="10" fill="#6B7280">Click card to investigate</text>

  <!-- Investigation Sidebar -->
  <rect x="390" y="536" width="165" height="230" rx="8" fill="#fff" stroke="#E2E5EC" stroke-width="1.5"/>
  <rect x="390" y="536" width="165" height="5" rx="3" fill="#7C3AED"/>
  <text x="472" y="558" text-anchor="middle" font-size="11" font-weight="600" fill="#111827">Investigation Sidebar</text>
  <text x="472" y="574" text-anchor="middle" font-size="10" fill="#6B7280">Severity score bar</text>
  <text x="472" y="588" text-anchor="middle" font-size="10" fill="#6B7280">Confidence meter</text>
  <text x="472" y="602" text-anchor="middle" font-size="10" fill="#6B7280">MITRE ATT&amp;CK tactic</text>
  <text x="472" y="616" text-anchor="middle" font-size="10" fill="#6B7280">Kill chain timeline</text>
  <text x="472" y="630" text-anchor="middle" font-size="10" fill="#7C3AED">Evidence Trail + SPL</text>
  <text x="472" y="644" text-anchor="middle" font-size="10" fill="#7C3AED">(MCP badge shown)</text>
  <text x="472" y="658" text-anchor="middle" font-size="10" fill="#DC2626">Threat Intel panel</text>
  <text x="472" y="672" text-anchor="middle" font-size="10" fill="#16A34A">Containment Actions</text>
  <text x="472" y="686" text-anchor="middle" font-size="10" fill="#16A34A">Approve / Dismiss</text>
  <text x="472" y="700" text-anchor="middle" font-size="10" fill="#2563EB">AI Chat (streaming)</text>
  <text x="472" y="714" text-anchor="middle" font-size="10" fill="#2563EB">Follow-up questions</text>

  <!-- Action Log + Runbooks -->
  <rect x="570" y="536" width="135" height="108" rx="8" fill="#fff" stroke="#E2E5EC" stroke-width="1.5"/>
  <rect x="570" y="536" width="135" height="5" rx="3" fill="#6B7280"/>
  <text x="637" y="558" text-anchor="middle" font-size="11" font-weight="600" fill="#111827">Action Log</text>
  <text x="637" y="574" text-anchor="middle" font-size="10" fill="#6B7280">All executed actions</text>
  <text x="637" y="588" text-anchor="middle" font-size="10" fill="#6B7280">Status: Exec/Pending</text>
  <text x="637" y="602" text-anchor="middle" font-size="10" fill="#6B7280">Slide-in panel</text>
  <text x="637" y="616" text-anchor="middle" font-size="10" fill="#6B7280">Live 5s refresh</text>

  <rect x="570" y="654" width="135" height="112" rx="8" fill="#fff" stroke="#E2E5EC" stroke-width="1.5"/>
  <rect x="570" y="654" width="135" height="5" rx="3" fill="#7C3AED"/>
  <text x="637" y="676" text-anchor="middle" font-size="11" font-weight="600" fill="#111827">Runbook Builder</text>
  <text x="637" y="692" text-anchor="middle" font-size="10" fill="#6B7280">Zapier-style cards</text>
  <text x="637" y="706" text-anchor="middle" font-size="10" fill="#6B7280">Add step modal</text>
  <text x="637" y="720" text-anchor="middle" font-size="10" fill="#6B7280">/runbooks/new</text>

  <!-- ─────────────────────────────────────────────────────── -->
  <!-- Slack Box -->
  <rect x="740" y="506" width="420" height="280" rx="10" fill="#F0FDF4" stroke="#BBF7D0" stroke-width="1.5"/>
  <text x="950" y="526" text-anchor="middle" font-size="11" font-weight="600" fill="#15803D" letter-spacing="0.08em">SLACK INTEGRATION</text>

  <!-- Outbound -->
  <rect x="760" y="536" width="175" height="230" rx="8" fill="#fff" stroke="#E2E5EC" stroke-width="1.5"/>
  <rect x="760" y="536" width="175" height="5" rx="3" fill="#16A34A"/>
  <text x="847" y="558" text-anchor="middle" font-size="11" font-weight="600" fill="#111827">Outbound Cards</text>
  <text x="847" y="574" text-anchor="middle" font-size="10" fill="#6B7280">Every high/critical alert</text>
  <text x="847" y="590" text-anchor="middle" font-size="10" fill="#6B7280">→ Rich Slack message</text>
  <rect x="768" y="600" width="159" height="76" rx="5" fill="#F9FAFB" stroke="#E2E5EC" stroke-width="1"/>
  <text x="847" y="618" text-anchor="middle" font-size="9" font-weight="600" fill="#DC2626">🔴 CRITICAL — Alert title</text>
  <text x="847" y="632" text-anchor="middle" font-size="9" fill="#374151">Host · IP · MITRE · Confidence</text>
  <text x="847" y="646" text-anchor="middle" font-size="9" fill="#374151">Kill chain summary</text>
  <text x="847" y="660" text-anchor="middle" font-size="9" fill="#D97706">⚠️ Threat Intel warning</text>
  <text x="847" y="676" text-anchor="middle" font-size="8" fill="#2563EB">[View in Sankofa] [False Positive]</text>
  <text x="847" y="700" text-anchor="middle" font-size="10" fill="#6B7280">✅ Action confirmations</text>
  <text x="847" y="714" text-anchor="middle" font-size="10" fill="#6B7280">auto-posted after execution</text>

  <!-- Interactive Buttons -->
  <rect x="950" y="536" width="195" height="230" rx="8" fill="#fff" stroke="#E2E5EC" stroke-width="1.5"/>
  <rect x="950" y="536" width="195" height="5" rx="3" fill="#DC2626"/>
  <text x="1047" y="558" text-anchor="middle" font-size="11" font-weight="600" fill="#111827">Interactive Buttons</text>
  <text x="1047" y="574" text-anchor="middle" font-size="10" fill="#6B7280">High-risk actions →</text>
  <text x="1047" y="588" text-anchor="middle" font-size="10" fill="#6B7280">Approval card in Slack</text>
  <rect x="958" y="600" width="179" height="80" rx="5" fill="#F9FAFB" stroke="#E2E5EC" stroke-width="1"/>
  <text x="1047" y="618" text-anchor="middle" font-size="9" font-weight="600" fill="#111827">🔒 ACTION REQUIRED</text>
  <text x="1047" y="632" text-anchor="middle" font-size="9" fill="#374151">Block source IP at perimeter</text>
  <text x="1047" y="646" text-anchor="middle" font-size="9" fill="#374151">Runbook: Credential Access</text>
  <rect x="966" y="656" width="72" height="18" rx="4" fill="#16A34A"/>
  <text x="1002" y="669" text-anchor="middle" font-size="9" font-weight="600" fill="#fff">✓ Approve</text>
  <rect x="1048" y="656" width="72" height="18" rx="4" fill="#DC2626"/>
  <text x="1084" y="669" text-anchor="middle" font-size="9" font-weight="600" fill="#fff">✗ Dismiss</text>
  <text x="1047" y="700" text-anchor="middle" font-size="10" fill="#6B7280">Click → updates original</text>
  <text x="1047" y="714" text-anchor="middle" font-size="10" fill="#6B7280">message (response_url)</text>
  <text x="1047" y="730" text-anchor="middle" font-size="9" fill="#6B7280">Requires ngrok for local dev</text>
  <text x="1047" y="744" text-anchor="middle" font-size="9" fill="#6B7280">Signing secret verified ✓</text>

  <!-- ─────────────────────────────────────────────────────── -->
  <!-- Stats Bar label -->
  <rect x="40" y="794" width="1120" height="20" rx="5" fill="#EFF6FF" stroke="#BFDBFE" stroke-width="1"/>
  <text x="600" y="808" text-anchor="middle" font-size="10" fill="#1D4ED8">Stats Bar: live severity counts · avg confidence · actions executed · pending approvals · WebSocket connection status</text>

</svg>
